<?xml version="1.0"?>
<svg version="1.1" xmlns="http://www.w3.org/2000/svg" width="400" height="50" style=""><path fill="#e94949" d="M16.07666015625,27.939453125q0-1.1279296875,0.093994140625-2.469482421875t0.333251953125-2.691650390625t0.7177734375-2.606201171875t1.23046875-2.23876953125t1.837158203125-1.563720703125t2.589111328125-0.5810546875q1.1962890625,0,2.20458984375,0.46142578125t1.76025390625,1.24755859375t1.170654296875,1.837158203125t0.418701171875,2.196044921875q0,0.3076171875-0.418701171875,0.384521484375t-0.589599609375,0.076904296875q-0.3076171875,0-0.589599609375-0.05126953125t-0.418701171875-0.41015625q-0.2392578125-0.66650390625-0.504150390625-1.4013671875t-0.6494140625-1.341552734375t-0.948486328125-0.999755859375q-0.5126953125-0.341796875-1.298828125-0.341796875l-0.13671875,0q-1.435546875,0.0341796875-2.13623046875,1.025390625t-0.965576171875,2.40966796875t-0.264892578125,3.0078125l0,2.81982421875q0,0.70068359375,0.05126953125,2.03369140625t0.247802734375,2.9052734375t0.5126953125,3.204345703125t0.8544921875,2.9736328125t1.290283203125,2.1875t1.8115234375,0.845947265625q0.93994140625,0,1.640625-0.6494140625t1.204833984375-1.666259765625t0.8544921875-2.27294921875t0.5810546875-2.520751953125t0.350341796875-2.349853515625t0.18798828125-1.785888671875q-0.18798828125-0.01708984375-0.35888671875-0.01708984375q-0.80322265625,0-1.572265625,0.25634765625q-0.97412109375,0.29052734375-1.9482421875,0.29052734375q-0.13671875,0-0.367431640625-0.01708984375t-0.435791015625-0.08544921875t-0.367431640625-0.196533203125t-0.162353515625-0.333251953125q0-0.39306640625,0.863037109375-0.66650390625t1.96533203125-0.469970703125t2.127685546875-0.281982421875t1.35009765625-0.08544921875q0.1708984375,0,0.487060546875,0.0341796875t0.63232421875,0.11962890625t0.538330078125,0.247802734375t0.22216796875,0.401611328125q0,0.205078125-0.15380859375,0.367431640625t-0.384521484375,0.247802734375t-0.469970703125,0.11962890625t-0.3759765625,0.0341796875q0.01708984375,0.39306640625,0.01708984375,0.80322265625q0,0.9228515625-0.05126953125,1.96533203125q-0.08544921875,1.50390625-0.341796875,3.0078125t-0.7861328125,2.92236328125t-1.35009765625,2.503662109375t-2.025146484375,1.751708984375t-2.862548828125,0.66650390625q-1.8115234375,0-3.05908203125-0.76904296875t-2.03369140625-2.05078125t-1.221923828125-2.9052734375t-0.623779296875-3.323974609375t-0.230712890625-3.306884765625t-0.042724609375-2.9052734375z M35.570532226562,19.0869140625q0-0.80322265625,0.196533203125-1.170654296875t0.56396484375-0.5126953125t0.888671875-0.111083984375t1.221923828125,0.0341796875q1.77734375,0,3.5888671875,0.546875t3.26416015625,1.597900390625t2.34130859375,2.589111328125t0.888671875,3.53759765625q0,1.3330078125-0.384521484375,2.520751953125t-1.085205078125,2.2216796875t-1.640625,1.888427734375t-2.06787109375,1.48681640625q0.46142578125,0.46142578125,1.1962890625,1.632080078125t1.45263671875,2.4951171875t1.273193359375,2.572021484375t0.657958984375,1.8798828125l-0.205078125,0.3076171875q-0.46142578125,0.2734375-1.11083984375,0.29052734375q-0.3076171875,0-0.80322265625-0.076904296875t-0.63232421875-0.452880859375q-0.70068359375-1.96533203125-1.529541015625-4.05029296875t-2.042236328125-3.759765625l0-0.0341796875q-0.42724609375,0.1708984375-0.845947265625,0.333251953125t-0.845947265625,0.299072265625q0.13671875,1.89697265625,0.281982421875,3.734130859375t0.145263671875,3.717041015625q0,0.2392578125-0.230712890625,0.384521484375t-0.521240234375,0.230712890625t-0.589599609375,0.11962890625t-0.487060546875,0.0341796875q-0.1708984375,0-0.487060546875-0.0341796875t-0.606689453125-0.11962890625t-0.504150390625-0.247802734375t-0.213623046875-0.435791015625q0-1.89697265625-0.08544921875-3.785400390625t-0.18798828125-3.768310546875q-0.52978515625-0.341796875-0.52978515625-0.888671875q0-0.42724609375,0.41015625-0.5810546875q-0.205078125-3.60595703125-0.469970703125-7.19482421875t-0.264892578125-7.22900390625z M38.663793945312,18.55712890625q0.2392578125,3.70849609375,0.538330078125,7.33154296875t0.572509765625,7.33154296875q1.1962890625-0.341796875,2.230224609375-1.187744140625t1.785888671875-1.905517578125t1.170654296875-2.30712890625t0.418701171875-2.47802734375q0-1.3671875-0.546875-2.623291015625t-1.45263671875-2.196044921875q-0.9228515625-0.93994140625-2.119140625-1.4697265625q-1.0595703125-0.46142578125-2.2216796875-0.46142578125l-0.3076171875,0z M52.056591796875,26.07666015625q0-0.66650390625,0.042724609375-1.956787109375t0.128173828125-2.691650390625t0.22216796875-2.623291015625t0.39306640625-1.751708984375q0.13671875-0.2734375,0.418701171875-0.367431640625t0.555419921875-0.093994140625q0.1708984375,0,0.572509765625,0.093994140625t0.401611328125,0.367431640625q0,0.42724609375-0.1025390625,1.614990234375t-0.18798828125,2.725830078125t-0.11962890625,3.19580078125l0,0.73486328125q0,1.24755859375,0.08544921875,2.34130859375q0.11962890625,1.4013671875,0.452880859375,2.30712890625t0.999755859375,0.90576171875q0.90576171875,0,1.69189453125-0.538330078125t1.435546875-1.4013671875t1.170654296875-1.93115234375t0.888671875-2.10205078125t0.615234375-1.905517578125t0.350341796875-1.3671875q0.1025390625-0.56396484375,0.179443359375-1.50390625t0.247802734375-1.845703125t0.606689453125-1.572265625t1.273193359375-0.66650390625q0.49560546875,0,0.948486328125,0.1708984375t0.589599609375,0.73486328125q-0.2734375,1.04248046875-0.46142578125,2.896728515625t-0.299072265625,3.887939453125t-0.162353515625,3.939208984375t-0.05126953125,3.101806640625q0,1.3330078125,0.0341796875,3.255615234375t0.11962890625,3.973388671875t0.196533203125,3.990478515625t0.247802734375,3.238525390625q0.13671875,0.2734375,0.13671875,0.63232421875q0,0.42724609375-0.1708984375,0.66650390625t-0.469970703125,0.35888671875t-0.6494140625,0.15380859375t-0.675048828125,0.0341796875q-0.49560546875,0-1.102294921875-0.1708984375t-0.743408203125-0.70068359375q-0.1708984375-0.63232421875-0.281982421875-1.666259765625t-0.162353515625-2.255859375t-0.08544921875-2.554931640625t-0.0341796875-2.554931640625t0.01708984375-2.27294921875t0.01708984375-1.717529296875q0-1.298828125,0.05126953125-2.554931640625t0.11962890625-2.554931640625q-0.42724609375,0.87158203125-0.999755859375,1.768798828125t-1.307373046875,1.632080078125t-1.640625,1.204833984375t-1.96533203125,0.469970703125q-1.3671875,0-2.0849609375-0.73486328125t-1.04248046875-1.820068359375t-0.367431640625-2.30712890625t-0.042724609375-2.213134765625z M69.448413085937,39.62890625q0.1025390625-2.7685546875,0.179443359375-5.673828125t0.145263671875-5.733642578125t0.1025390625-5.494384765625t0.0341796875-4.97314453125q0.0341796875-0.46142578125,0.80322265625-0.73486328125t1.837158203125-0.401611328125t2.255859375-0.162353515625t2.110595703125-0.0341796875q0.205078125,0,0.8544921875-0.01708984375l0.32470703125,0q0.49560546875,0,1.04248046875,0.0341796875q0.7177734375,0.05126953125,1.256103515625,0.22216796875t0.538330078125,0.49560546875q0,0.2392578125-0.18798828125,0.384521484375t-0.435791015625,0.213623046875t-0.5126953125,0.08544921875t-0.367431640625,0.01708984375q-1.6064453125,0-3.1787109375-0.05126953125q-0.42724609375-0.01708984375-0.87158203125-0.01708984375q-1.162109375,0-2.3583984375,0.1025390625q0.068359375,0.205078125,0.111083984375,1.239013671875t0.042724609375,2.332763671875t-0.01708984375,2.537841796875t0,1.905517578125l0,4.443359375q0.52978515625-0.0341796875,1.04248046875-0.0341796875l1.025390625,0l0.68359375-0.0341796875q0.341796875-0.01708984375,0.7177734375-0.01708984375q0.39306640625,0,0.80322265625,0.01708984375q0.8203125,0.0341796875,1.495361328125,0.196533203125t0.675048828125,0.572509765625q0,0.3076171875-0.25634765625,0.452880859375t-0.572509765625,0.213623046875t-0.59814453125,0.068359375l-0.316162109375,0q-0.97412109375,0-2.025146484375-0.068359375t-1.956787109375-0.068359375q-0.1708984375,0.068359375-0.367431640625,0.05126953125t-0.350341796875-0.01708984375q0,2.5634765625-0.05126953125,5.101318359375t-0.11962890625,5.050048828125q0,0.49560546875-0.623779296875,0.6494140625t-1.187744140625,0.15380859375q-0.63232421875,0-0.999755859375-0.15380859375t-0.521240234375-0.504150390625t-0.18798828125-0.931396484375q-0.01708984375-0.32470703125-0.0341796875-0.7177734375q0-0.32470703125,0.01708984375-0.70068359375z M83.422265625,39.62890625q0.1025390625-2.7685546875,0.179443359375-5.673828125t0.145263671875-5.733642578125t0.1025390625-5.494384765625t0.0341796875-4.97314453125q0.0341796875-0.46142578125,0.80322265625-0.73486328125t1.837158203125-0.401611328125t2.255859375-0.162353515625t2.110595703125-0.0341796875q0.205078125,0,0.8544921875-0.01708984375l0.32470703125,0q0.49560546875,0,1.04248046875,0.0341796875q0.7177734375,0.05126953125,1.256103515625,0.22216796875t0.538330078125,0.49560546875q0,0.2392578125-0.18798828125,0.384521484375t-0.435791015625,0.213623046875t-0.5126953125,0.08544921875t-0.367431640625,0.01708984375q-1.6064453125,0-3.1787109375-0.05126953125q-0.42724609375-0.01708984375-0.87158203125-0.01708984375q-1.162109375,0-2.3583984375,0.1025390625q0.068359375,0.205078125,0.111083984375,1.239013671875t0.042724609375,2.332763671875t-0.01708984375,2.537841796875t0,1.905517578125l0,4.443359375q0.52978515625-0.0341796875,1.04248046875-0.0341796875l1.025390625,0l0.68359375-0.0341796875q0.341796875-0.01708984375,0.7177734375-0.01708984375q0.39306640625,0,0.80322265625,0.01708984375q0.8203125,0.0341796875,1.495361328125,0.196533203125t0.675048828125,0.572509765625q0,0.3076171875-0.25634765625,0.452880859375t-0.572509765625,0.213623046875t-0.59814453125,0.068359375l-0.316162109375,0q-0.97412109375,0-2.025146484375-0.068359375t-1.956787109375-0.068359375q-0.1708984375,0.068359375-0.367431640625,0.05126953125t-0.350341796875-0.01708984375q0,2.5634765625-0.05126953125,5.101318359375t-0.11962890625,5.050048828125q0,0.49560546875-0.623779296875,0.6494140625t-1.187744140625,0.15380859375q-0.63232421875,0-0.999755859375-0.15380859375t-0.521240234375-0.504150390625t-0.18798828125-0.931396484375q-0.01708984375-0.32470703125-0.0341796875-0.7177734375q0-0.32470703125,0.01708984375-0.70068359375z M97.361938476562,42.2607421875q0.068359375-3.57177734375,0.299072265625-7.12646484375t0.401611328125-7.12646484375q0.0341796875-1.3671875,0.0341796875-2.486572265625t0.111083984375-1.939697265625t0.41015625-1.256103515625t0.999755859375-0.435791015625q0.59814453125,0,0.90576171875,0.1708984375t0.469970703125,0.435791015625t0.196533203125,0.59814453125t0.0341796875,0.675048828125q0,0.49560546875,0.0341796875,0.982666015625t0.0341796875,0.982666015625q0,3.60595703125-0.196533203125,7.19482421875t-0.196533203125,7.22900390625q0,0.52978515625,0.01708984375,1.068115234375t0.01708984375,1.102294921875q0,0.205078125-0.18798828125,0.341796875t-0.469970703125,0.230712890625t-0.59814453125,0.128173828125t-0.521240234375,0.0341796875q-0.2392578125,0-0.538330078125-0.0341796875t-0.5810546875-0.145263671875t-0.478515625-0.264892578125t-0.196533203125-0.35888671875z M98.318969726562,19.0869140625q0-0.1708984375,0.05126953125-0.384521484375t0.11962890625-0.384521484375q0.0341796875-0.205078125,0.1025390625-0.70068359375t0.247802734375-0.965576171875t0.49560546875-0.83740234375t0.897216796875-0.367431640625l0.32470703125,0q0.2734375,0.068359375,0.555419921875,0.1708984375t0.281982421875,0.49560546875q0,0.1708984375-0.01708984375,0.32470703125t-0.05126953125,0.341796875q-0.13671875,1.00830078125-0.264892578125,1.58935546875t-0.299072265625,0.880126953125t-0.435791015625,0.384521484375t-0.675048828125,0.11962890625q-0.13671875,0-0.367431640625-0.01708984375t-0.4443359375-0.08544921875t-0.367431640625-0.213623046875t-0.15380859375-0.350341796875z M104.89291992188,20.12939453125q0-0.205078125,0.196533203125-0.3076171875t0.42724609375-0.15380859375t0.418701171875-0.05126953125l0.18798828125,0q0.59814453125,0,0.863037109375,0.2734375t0.640869140625,0.70068359375q2.5634765625,3.70849609375,4.69970703125,7.630615234375t4.11865234375,7.938232421875q0.1708984375-4.6826171875,0.350341796875-9.425048828125t0.452880859375-9.407958984375q0-0.205078125,0.196533203125-0.341796875t0.4443359375-0.205078125t0.504150390625-0.08544921875t0.39306640625-0.01708984375q0.205078125,0,0.452880859375,0.01708984375t0.49560546875,0.1025390625t0.41015625,0.205078125t0.162353515625,0.32470703125q0.068359375,0.73486328125,0.076904296875,1.478271484375t0.008544921875,1.478271484375q0,5.5029296875-0.2392578125,10.78369140625t-0.2392578125,10.6640625l0,1.23046875q0,0.068359375-0.068359375,0.205078125q0.0341796875,0.13671875,0.1025390625,0.299072265625t0.068359375,0.230712890625q0,0.2734375-0.281982421875,0.41015625t-0.615234375,0.213623046875t-0.589599609375,0.076904296875t-0.18798828125,0q-0.87158203125,0-1.4697265625-0.478515625t-0.59814453125-1.14501953125q-1.2646484375-2.8369140625-2.520751953125-5.631103515625t-2.623291015625-5.562744140625q-0.87158203125-1.7431640625-1.751708984375-3.494873046875t-1.888427734375-3.392333984375q0.0341796875,0.0341796875,0.0341796875,0.1025390625q0.1708984375,1.708984375,0.367431640625,3.409423828125t0.299072265625,3.409423828125q0.068359375,1.4697265625,0.15380859375,2.9736328125t0.2734375,2.9736328125q0,0.56396484375-0.350341796875,0.7177734375t-0.811767578125,0.15380859375q-0.39306640625,0-0.743408203125-0.1025390625t-0.418701171875-0.5126953125q0-1.572265625-0.11962890625-3.341064453125t-0.22216796875-3.563232421875q-0.1708984375-2.37548828125-0.452880859375-4.827880859375t-0.281982421875-4.793701171875q0-0.1025390625,0.01708984375-0.213623046875t0.01708984375-0.247802734375q-0.1025390625-0.1708984375-0.230712890625-0.35888671875t-0.128173828125-0.341796875z M123.87409667969,18.72802734375q0-1.1962890625,0.41015625-1.6064453125t1.14501953125-0.41015625q0.205078125,0,0.435791015625,0.0341796875t0.435791015625,0.1025390625q1.14501953125-0.22216796875,2.17041015625-0.22216796875q1.65771484375,0,3.0078125,0.5810546875q2.17041015625,0.9228515625,3.5888671875,2.734375t2.0849609375,4.25537109375t0.66650390625,5.00732421875q0,1.435546875-0.196533203125,2.99072265625t-0.760498046875,2.88818359375q-0.49560546875,1.1962890625-1.3671875,2.503662109375t-1.973876953125,2.47802734375t-2.37548828125,2.05078125t-2.572021484375,1.187744140625l0,0.13671875q0,0.341796875-0.179443359375,0.555419921875t-0.435791015625,0.32470703125t-0.589599609375,0.145263671875t-0.623779296875,0.0341796875q-0.1708984375,0-0.487060546875-0.0341796875t-0.615234375-0.128173828125t-0.504150390625-0.247802734375t-0.205078125-0.42724609375q0-3.1103515625-0.162353515625-6.229248046875t-0.367431640625-6.23779296875t-0.367431640625-6.229248046875t-0.162353515625-6.23779296875z M127.10407714844,17.8564453125q0.1708984375,1.640625,0.22216796875,3.272705078125t0.15380859375,3.272705078125q0.2734375,4.23828125,0.63232421875,8.433837890625t0.42724609375,8.433837890625q1.640625-1.07666015625,2.811279296875-2.4609375t1.922607421875-3.0078125t1.102294921875-3.409423828125t0.350341796875-3.682861328125q0-1.3671875-0.2392578125-3.0078125t-0.8203125-3.16162109375t-1.563720703125-2.75146484375t-2.452392578125-1.76025390625q-0.3076171875-0.1025390625-0.743408203125-0.1708984375t-1.392822265625-0.068359375q-0.1025390625,0-0.205078125,0.0341796875t-0.205078125,0.0341796875z M141.30009765625,30.41748046875q0-1.00830078125,0.111083984375-2.44384765625t0.41015625-2.99072265625t0.80322265625-3.09326171875t1.290283203125-2.71728515625t1.8798828125-1.86279296875q0.90576171875-0.56396484375,2.0849609375-0.56396484375q0.2392578125,0,0.49560546875,0.0341796875q2.9736328125,0.2734375,4.571533203125,1.358642578125t2.332763671875,2.75146484375t0.8544921875,3.7939453125t0.11962890625,4.486083984375q0,1.89697265625-0.350341796875,4.127197265625t-1.239013671875,4.161376953125t-2.452392578125,3.221435546875t-3.973388671875,1.290283203125q-1.4697265625,0-2.572021484375-0.538330078125t-1.871337890625-1.435546875t-1.2646484375-2.0849609375t-0.751953125-2.4609375t-0.367431640625-2.572021484375t-0.111083984375-2.4609375z M144.7693359375,29.6484375q0,0.73486328125,0.01708984375,1.802978515625t0.145263671875,2.247314453125t0.333251953125,2.349853515625t0.606689453125,2.127685546875t1.016845703125,1.572265625t1.48681640625,0.6494140625l0.08544921875,0q0.7861328125,0,1.4013671875-0.59814453125q0.6494140625-0.63232421875,1.153564453125-1.52099609375t0.87158203125-1.871337890625t0.657958984375-1.683349609375l-0.068359375,0.15380859375q0.49560546875-1.572265625,0.66650390625-3.221435546875t0.1708984375-3.255615234375q0-0.76904296875-0.1025390625-1.854248046875t-0.333251953125-2.264404296875t-0.59814453125-2.332763671875t-0.931396484375-2.008056640625t-1.31591796875-1.298828125q-0.546875-0.32470703125-1.21337890625-0.341796875q-0.25634765625,0-0.5126953125,0.05126953125q-0.87158203125,0.1708984375-1.48681640625,0.8544921875t-0.999755859375,1.683349609375t-0.589599609375,2.1875t-0.316162109375,2.392578125t-0.128173828125,2.30712890625t-0.01708984375,1.871337890625z M152.47685546875,34.912109375l0-0.0341796875l0,0.0341796875z M159.78566894531,19.0869140625q0-0.80322265625,0.196533203125-1.170654296875t0.56396484375-0.5126953125t0.888671875-0.111083984375t1.221923828125,0.0341796875q1.77734375,0,3.5888671875,0.546875t3.26416015625,1.597900390625t2.34130859375,2.589111328125t0.888671875,3.53759765625q0,1.3330078125-0.384521484375,2.520751953125t-1.085205078125,2.2216796875t-1.640625,1.888427734375t-2.06787109375,1.48681640625q0.46142578125,0.46142578125,1.1962890625,1.632080078125t1.45263671875,2.4951171875t1.273193359375,2.572021484375t0.657958984375,1.8798828125l-0.205078125,0.3076171875q-0.46142578125,0.2734375-1.11083984375,0.29052734375q-0.3076171875,0-0.80322265625-0.076904296875t-0.63232421875-0.452880859375q-0.70068359375-1.96533203125-1.529541015625-4.05029296875t-2.042236328125-3.759765625l0-0.0341796875q-0.42724609375,0.1708984375-0.845947265625,0.333251953125t-0.845947265625,0.299072265625q0.13671875,1.89697265625,0.281982421875,3.734130859375t0.145263671875,3.717041015625q0,0.2392578125-0.230712890625,0.384521484375t-0.521240234375,0.230712890625t-0.589599609375,0.11962890625t-0.487060546875,0.0341796875q-0.1708984375,0-0.487060546875-0.0341796875t-0.606689453125-0.11962890625t-0.504150390625-0.247802734375t-0.213623046875-0.435791015625q0-1.89697265625-0.08544921875-3.785400390625t-0.18798828125-3.768310546875q-0.52978515625-0.341796875-0.52978515625-0.888671875q0-0.42724609375,0.41015625-0.5810546875q-0.205078125-3.60595703125-0.469970703125-7.19482421875t-0.264892578125-7.22900390625z M162.87893066406,18.55712890625q0.2392578125,3.70849609375,0.538330078125,7.33154296875t0.572509765625,7.33154296875q1.1962890625-0.341796875,2.230224609375-1.187744140625t1.785888671875-1.905517578125t1.170654296875-2.30712890625t0.418701171875-2.47802734375q0-1.3671875-0.546875-2.623291015625t-1.45263671875-2.196044921875q-0.9228515625-0.93994140625-2.119140625-1.4697265625q-1.0595703125-0.46142578125-2.2216796875-0.46142578125l-0.3076171875,0z M176.23754882813,39.2529296875q0-0.59814453125,0.41015625-0.760498046875t0.888671875-0.162353515625q0.83740234375,0,1.41845703125,0.751953125t1.102294921875,1.649169921875t1.033935546875,1.649169921875t1.21337890625,0.751953125q0.52978515625,0,0.965576171875-0.264892578125t0.751953125-0.66650390625t0.487060546875-0.90576171875t0.1708984375-0.999755859375q0-1.298828125-0.521240234375-2.68310546875t-1.3330078125-2.85400390625t-1.717529296875-3.0078125t-1.708984375-3.12744140625t-1.3330078125-3.238525390625t-0.52978515625-3.323974609375q0-2.51220703125,1.50390625-3.896484375t3.96484375-1.38427734375q0.83740234375,0,1.69189453125,0.2392578125t1.572265625,0.7177734375t1.170654296875,1.17919921875t0.452880859375,1.640625q0,0.3076171875-0.452880859375,0.401611328125t-0.657958984375,0.093994140625q-0.3076171875,0-0.66650390625-0.076904296875t-0.46142578125-0.418701171875t-0.29052734375-0.7861328125t-0.469970703125-0.828857421875t-0.66650390625-0.66650390625t-0.845947265625-0.281982421875q-0.76904296875,0-1.307373046875,0.316162109375t-0.87158203125,0.845947265625t-0.49560546875,1.187744140625t-0.162353515625,1.358642578125q0,1.640625,0.56396484375,3.306884765625t1.4013671875,3.3154296875t1.820068359375,3.255615234375t1.820068359375,3.12744140625t1.4013671875,2.9736328125t0.56396484375,2.75146484375q0,1.162109375-0.546875,1.96533203125t-1.38427734375,1.307373046875t-1.854248046875,0.73486328125t-1.990966796875,0.230712890625q-1.04248046875,0-2.13623046875-0.418701171875t-1.96533203125-1.153564453125t-1.435546875-1.717529296875t-0.56396484375-2.127685546875z"/><path fill="#" d=""/></svg>
